<svg width="25" height="24" viewBox="0 0 25 24" fill="none" xmlns="http://www.w3.org/2000/svg">
<path d="M11.9612 6.27634L12.502 6.83897L13.0427 6.27634L13.234 6.07725C15.0688 4.16826 18.0409 4.16826 19.8756 6.07725C21.7134 7.9894 21.7134 11.0917 19.8756 13.0038L13.1997 19.95C12.8241 20.3407 12.211 20.3495 11.8249 19.9708C11.8244 19.9703 11.824 19.9699 11.8235 19.9695L11.8138 19.9598L11.8042 19.95L11.8018 19.9474L5.12832 13.0038C3.29056 11.0917 3.29056 7.9894 5.12832 6.07725C6.96305 4.16826 9.93514 4.16826 11.7699 6.07725L12.3027 5.56514L11.7699 6.07725L11.9612 6.27634Z" fill="black" stroke="black" stroke-width="1.5"/>
</svg>
