<svg width="26" height="26" viewBox="0 0 26 26" fill="none" xmlns="http://www.w3.org/2000/svg">
<path d="M12.569 6.75372L13.1119 7.32344L13.6549 6.75372L13.8604 6.53805L13.3399 6.04197L13.8604 6.53805C15.8527 4.44744 19.0782 4.44744 21.0706 6.53805C23.0683 8.63434 23.0683 12.0368 21.0706 14.133L13.8994 21.658C13.4748 22.1036 12.784 22.1133 12.3477 21.6816C12.3473 21.6812 12.3468 21.6808 12.3464 21.6803L12.3354 21.6693L12.3245 21.658L12.3221 21.6555L5.15333 14.133C3.15559 12.0368 3.15559 8.63434 5.15333 6.53805C7.14565 4.44744 10.3712 4.44744 12.3635 6.53805L12.896 6.03053L12.3635 6.53805L12.569 6.75372Z" stroke="#FF0000" stroke-width="1.5"/>
</svg>
