<svg width="24" height="24" viewBox="0 0 24 24" fill="none" xmlns="http://www.w3.org/2000/svg">
<path d="M11.4612 6.27634L12.002 6.83896L12.5427 6.27634L12.734 6.07725L12.2257 5.58868L12.734 6.07725C14.5688 4.16826 17.5409 4.16826 19.3756 6.07725C21.2134 7.9894 21.2134 11.0917 19.3756 13.0038L12.6997 19.95C12.3241 20.3407 11.711 20.3495 11.3249 19.9708C11.3244 19.9703 11.324 19.9699 11.3235 19.9695L11.3138 19.9598L11.3042 19.95L11.3018 19.9475L4.62832 13.0038C2.79056 11.0917 2.79056 7.9894 4.62832 6.07725C6.46305 4.16826 9.43514 4.16826 11.2699 6.07725L11.7782 5.58868L11.2699 6.07725L11.4612 6.27634Z" fill="#FF0000" stroke="#FF0000" stroke-width="1.5"/>
</svg>
