<svg width="24" height="24" viewBox="0 0 24 24" fill="none" xmlns="http://www.w3.org/2000/svg">
<path d="M12.2557 15.8182V15.2045C12.2557 14.7538 12.3504 14.339 12.5398 13.9602C12.733 13.5814 13.0133 13.2765 13.3807 13.0455C13.7481 12.8144 14.1932 12.6989 14.7159 12.6989C15.2538 12.6989 15.7045 12.8144 16.0682 13.0455C16.4318 13.2727 16.7064 13.5758 16.892 13.9545C17.0814 14.3333 17.1761 14.75 17.1761 15.2045V15.8182C17.1761 16.2689 17.0814 16.6837 16.892 17.0625C16.7027 17.4413 16.4242 17.7462 16.0568 17.9773C15.6932 18.2083 15.2462 18.3239 14.7159 18.3239C14.1856 18.3239 13.7367 18.2083 13.3693 17.9773C13.0019 17.7462 12.7235 17.4413 12.5341 17.0625C12.3485 16.6837 12.2557 16.2689 12.2557 15.8182ZM13.7386 15.2045V15.8182C13.7386 16.1174 13.8106 16.392 13.9545 16.642C14.0985 16.892 14.3523 17.017 14.7159 17.017C15.0833 17.017 15.3352 16.8939 15.4716 16.6477C15.6117 16.3977 15.6818 16.1212 15.6818 15.8182V15.2045C15.6818 14.9015 15.6155 14.625 15.483 14.375C15.3504 14.1212 15.0947 13.9943 14.7159 13.9943C14.3598 13.9943 14.108 14.1212 13.9602 14.375C13.8125 14.625 13.7386 14.9015 13.7386 15.2045ZM6.34091 9.15909V8.54545C6.34091 8.09091 6.4375 7.67424 6.63068 7.29545C6.82386 6.91667 7.10417 6.61364 7.47159 6.38636C7.83902 6.1553 8.28409 6.03977 8.80682 6.03977C9.34091 6.03977 9.78977 6.1553 10.1534 6.38636C10.5208 6.61364 10.7973 6.91667 10.983 7.29545C11.1686 7.67424 11.2614 8.09091 11.2614 8.54545V9.15909C11.2614 9.61364 11.1667 10.0303 10.9773 10.4091C10.7917 10.7841 10.5152 11.0852 10.1477 11.3125C9.7803 11.5398 9.33333 11.6534 8.80682 11.6534C8.27273 11.6534 7.82197 11.5398 7.45455 11.3125C7.09091 11.0852 6.81439 10.7822 6.625 10.4034C6.43561 10.0246 6.34091 9.60985 6.34091 9.15909ZM7.83523 8.54545V9.15909C7.83523 9.46212 7.9053 9.73864 8.04545 9.98864C8.18939 10.2348 8.44318 10.358 8.80682 10.358C9.17045 10.358 9.42045 10.2348 9.55682 9.98864C9.69697 9.73864 9.76705 9.46212 9.76705 9.15909V8.54545C9.76705 8.24242 9.70076 7.96591 9.56818 7.71591C9.43561 7.46212 9.18182 7.33523 8.80682 7.33523C8.44697 7.33523 8.19508 7.46212 8.05114 7.71591C7.9072 7.9697 7.83523 8.24621 7.83523 8.54545ZM6.98864 18L14.9886 6.36364H16.4091L8.40909 18H6.98864Z" fill="#808080"/>
</svg>
