<svg width="65" height="64" viewBox="0 0 65 64" fill="none" xmlns="http://www.w3.org/2000/svg">
<rect x="1" y="0.5" width="63" height="63" rx="15.5" fill="#FF5841"/>
<path fill-rule="evenodd" clip-rule="evenodd" d="M42.7939 37.5459C41.9496 36.8323 40.8446 36.4092 39.8247 36.4092H25.2312C24.2091 36.4092 23.0873 36.834 22.2268 37.552C21.3676 38.2689 20.9091 39.1513 20.9091 40.0001V42.1819C20.9091 42.9601 21.54 43.591 22.3182 43.591H42.6818C43.4601 43.591 44.0909 42.9601 44.0909 42.1819V40.0001C44.0909 39.1408 43.6362 38.2578 42.7939 37.5459ZM45.5909 40.0001C45.5909 37.1885 42.6363 34.9092 39.8247 34.9092H25.2312C22.4196 34.9092 19.4091 37.1885 19.4091 40.0001V42.1819C19.4091 43.7886 20.7116 45.091 22.3182 45.091H42.6818C44.2885 45.091 45.5909 43.7886 45.5909 42.1819V40.0001ZM38.2728 26.1819C38.2728 22.9937 35.6882 20.4092 32.5 20.4092C29.3118 20.4092 26.7273 22.9937 26.7273 26.1819C26.7273 29.3701 29.3118 31.9546 32.5 31.9546C35.6882 31.9546 38.2728 29.3701 38.2728 26.1819ZM39.7728 26.1819C39.7728 22.1653 36.5166 18.9092 32.5 18.9092C28.4834 18.9092 25.2273 22.1653 25.2273 26.1819C25.2273 30.1985 28.4834 33.4546 32.5 33.4546C36.5166 33.4546 39.7728 30.1985 39.7728 26.1819Z" fill="white"/>
<rect x="1" y="0.5" width="63" height="63" rx="15.5" stroke="#E6E8EC"/>
</svg>
